<svg xmlns="http://www.w3.org/2000/svg" width="100" height="100" viewBox="0 0 26.458 26.458" xmlns:v="https://vecta.io/nano"><path d="M9.731 7.602c.388-.222.868-.258 1.251.021l7.441 4.548c.367.227.594.625.594 1.059s-.227.832-.594 1.059l-7.441 4.548a1.23 1.23 0 0 1-1.251.021c-.393-.217-.636-.63-.636-1.08V8.635c0-.403.243-.816.636-1.034zm16.728 5.628a13.23 13.23 0 0 1-13.229 13.229A13.23 13.23 0 0 1 0 13.229 13.23 13.23 0 0 1 13.229 0a13.23 13.23 0 0 1 13.229 13.229zM13.229 2.48A10.75 10.75 0 0 0 2.48 13.229a10.75 10.75 0 0 0 10.749 10.749 10.75 10.75 0 0 0 10.749-10.749A10.75 10.75 0 0 0 13.229 2.48z"/></svg>