<svg xmlns="http://www.w3.org/2000/svg" width="50" height="50" viewBox="0 0 13.229 13.229" xmlns:v="https://vecta.io/nano"><path d="M6.615 4.919c-.939 0-1.696.757-1.696 1.696S5.677 8.31 6.615 8.31s1.696-.757 1.696-1.696-.757-1.696-1.696-1.696zm0 2.798c-.607 0-1.103-.494-1.103-1.103s.494-1.103 1.103-1.103 1.103.494 1.103 1.103-.496 1.103-1.103 1.103zm2.161-2.868c0 .22-.177.396-.396.396s-.396-.177-.396-.396.177-.396.396-.396.396.177.396.396zm1.123.401c-.025-.53-.146-.999-.534-1.386s-.856-.508-1.386-.534c-.546-.031-2.183-.031-2.729 0-.528.025-.998.146-1.386.533s-.508.856-.534 1.386c-.031.546-.031 2.183 0 2.729.025.53.146.999.534 1.386s.856.508 1.386.534a40.07 40.07 0 0 0 2.729 0c.53-.025.999-.146 1.386-.534s.508-.856.534-1.386a40.01 40.01 0 0 0 0-2.728zm-.706 3.314c-.115.289-.338.512-.629.629-.435.173-1.469.133-1.95.133s-1.516.038-1.95-.133c-.289-.115-.512-.338-.629-.629-.173-.435-.133-1.469-.133-1.95s-.038-1.516.133-1.95c.115-.289.338-.512.629-.629.435-.173 1.469-.133 1.95-.133s1.516-.038 1.95.133c.289.115.512.338.629.629.173.435.133 1.469.133 1.95s.04 1.516-.133 1.95z"/></svg>